<?xml version="1.0" standalone="no"?><!DOCTYPE svg PUBLIC "-//W3C//DTD SVG 1.1//EN" "http://www.w3.org/Graphics/SVG/1.1/DTD/svg11.dtd"><svg class="icon" width="32px" height="32.00px" viewBox="0 0 1024 1024" version="1.1" xmlns="http://www.w3.org/2000/svg"><path fill="#e6e6e6" d="M325.914326 644.398426c0-14.522762 6.494924-28.278043 19.107173-40.884153l91.321892-91.321892-91.321892-90.946338c-12.627598-12.579503-19.107173-26.362414-19.107173-40.881083l0-2.672876c0-6.496971 0.095167-11.428284 3.057639-19.108197 2.786463-7.222495 5.932106-13.5629 11.08036-18.343787 5.16872-4.780887 11.464099-8.398274 18.723434-11.076266 4.203742-2.293229 10.316973-3.436262 18.343787-3.436262l2.673899 0c6.112208 0 13.787004 2.226714 21.013593 5.343705 9.584286 4.145413 13.359262 8.043187 19.87056 14.522762l91.320868 90.934059 90.558505-90.934059c11.812023-11.869329 25.982768-19.866467 41.651632-19.866467l3.437286 0c14.521738 0 26.746154 4.964058 36.299741 14.513552 5.732561 5.733585 9.125845 11.864212 11.08036 18.343787 1.847068 6.127558 3.057639 12.611226 3.057639 19.108197l0 2.672876c0 6.496971-1.606591 13.34289-4.968152 21.013593-3.50994 7.999185-7.630794 13.386892-14.134929 19.86749l-91.325985 90.946338 91.321892 91.321892c12.611226 12.606109 19.107173 26.361391 19.107173 40.884153l0 2.672876c0 8.40646-1.38658 14.758122-3.821025 19.10308-1.299599 6.463202-5.732561 10.700713-10.316973 18.34481-8.7902 9.169847-21.017686 13.753235-36.303834 13.753235l-3.437286 0c-14.902408 0-28.656667-6.494924-41.651632-19.48682l-90.554412-90.558505-91.320868 90.558505c-13.047154 12.9438-25.983791 19.48682-40.884153 19.48682l-2.677992 0c-8.022721 0-14.134929-1.147126-18.339694-3.441379-8.022721-3.052522-14.226003-5.64865-18.723434-10.316973-5.436826-5.64865-9.113565-11.860119-11.08036-18.339694-1.855254-6.126534-3.057639-12.606109-3.057639-19.10308L325.914326 644.398426 325.914326 644.398426z"  /></svg>